<?xml version="1.0" encoding="UTF-8"?>
<svg id="vector" viewBox="0 0 64 64" xmlns="http://www.w3.org/2000/svg">
 <path id="path" d="m32 32m-32 0c0-8.484 3.374-16.629 9.373-22.627 5.998-5.999 14.143-9.373 22.627-9.373s16.629 3.374 22.627 9.373c5.999 5.998 9.373 14.143 9.373 22.627s-3.374 16.629-9.373 22.627c-5.998 5.999-14.143 9.373-22.627 9.373s-16.629-3.374-22.627-9.373c-5.999-5.998-9.373-14.143-9.373-22.627" fill="#4f5d73"/>
 <path id="path_1" d="m32.1 39.68c-1.56 1.56-6.09 12.54-6.09 12.54-0.67 1.21 0.33 2.09 2.59 0.94l8.13-4.43c4.38-2.43 5.23-3.07 5.17-8.03l-0.81-5.85c-0.28-2.01-1.78-2.37-3.34-0.82l-5.65 5.65z" fill="#231f20" fill-opacity=".2"/>
 <path id="path_2" d="m27.07 34.66c-1.56 1.56-12.54 6.09-12.54 6.09-1.21 0.67-2.09-0.33-0.94-2.59l4.43-8.13c2.43-4.38 3.07-5.23 8.03-5.17l5.85 0.81c2.01 0.28 2.37 1.78 0.82 3.34l-5.65 5.65z" fill="#231f20" fill-opacity=".2"/>
 <path id="path_3" d="m32.1 37.68c-1.56 1.56-6.09 12.54-6.09 12.54-0.67 1.21 0.33 2.09 2.59 0.94l8.13-4.43c4.38-2.43 5.23-3.07 5.17-8.03l-0.81-5.85c-0.28-2.01-1.78-2.37-3.34-0.82l-5.65 5.65z" fill="#c75c5c"/>
 <path id="path_4" d="m27.07 32.66c-1.56 1.56-12.54 6.09-12.54 6.09-1.21 0.67-2.09-0.33-0.94-2.59l4.43-8.13c2.43-4.38 3.07-5.23 8.03-5.17l5.85 0.81c2.01 0.28 2.37 1.78 0.82 3.34l-5.65 5.65z" fill="#c75c5c"/>
 <path id="path_5" d="m21.25 39.54c5.07-5.07 9.34-3.53 9.34-3.53s1.55 4.26-3.53 9.34-13.29 8.76-13.93 8.12c-0.62-0.62 3.04-8.85 8.12-13.93z" fill="#231f20" fill-opacity=".2"/>
 <path id="path_6" d="m21.25 37.54c5.07-5.07 9.34-3.53 9.34-3.53s1.55 4.26-3.53 9.34-13.29 8.76-13.93 8.12c-0.62-0.62 3.04-8.85 8.12-13.93z" fill="#e0995e"/>
 <path id="path_7" d="m25.49 33.3c5.07-5.07 9.34-3.53 9.34-3.53s1.55 4.26-3.53 9.34-13.29 8.76-13.93 8.12c-0.62-0.62 3.05-8.85 8.12-13.93z" fill="#f5cf87"/>
 <path id="path_8" d="m43.63 37.08c-7.81 7.81-19.78 5.67-19.78 5.67s-2.14-11.97 5.67-19.78 19.64-8.64 21.2-7.09c1.51 1.51 0.72 13.39-7.09 21.2z" fill="#231f20" fill-opacity=".2"/>
 <path id="path_9" d="m43.63 35.08c-7.81 7.81-19.78 5.67-19.78 5.67s-2.14-11.97 5.67-19.78 19.64-8.64 21.2-7.09c1.51 1.51 0.72 13.39-7.09 21.2z" fill="#e0e0d1"/>
 <path id="path_10" d="m21.02 46.99c-0.78 0.78-1.34 1.49-2.12 0.71s-0.07-1.34 0.71-2.12l9.9-12.73c0.78-0.78 4.17-1.49 4.95-0.71s0.07 4.17-0.71 4.95l-12.73 9.9z" fill="#231f20" fill-opacity=".2"/>
 <path id="path_11" d="m21.02 44.99c-0.78 0.78-1.34 1.49-2.12 0.71s-0.07-1.34 0.71-2.12l9.9-12.73c0.78-0.78 4.17-1.49 4.95-0.71s0.07 4.17-0.71 4.95l-12.73 9.9z" fill="#c75c5c"/>
 <path id="path_12" d="m36.78 29.98c0.597 0.601 1.369 0.997 2.205 1.131s1.694-1e-3 2.449-0.385c0.754-0.384 1.368-0.998 1.752-1.752 0.384-0.755 0.519-1.613 0.385-2.449s-0.53-1.608-1.131-2.205c-0.597-0.601-1.369-0.997-2.205-1.131s-1.694 1e-3 -2.449 0.385c-0.754 0.384-1.368 0.998-1.752 1.752-0.384 0.755-0.519 1.613-0.385 2.449s0.53 1.608 1.131 2.205z" fill="#231f20" fill-opacity=".2"/>
 <path id="path_13" d="m43.85 22.91c0.298 0.3 0.685 0.498 1.103 0.565s0.846 0 1.224-0.192c0.377-0.192 0.684-0.499 0.876-0.876 0.192-0.378 0.259-0.806 0.192-1.224s-0.265-0.805-0.565-1.103c-0.298-0.3-0.685-0.498-1.103-0.565s-0.846 0-1.224 0.192c-0.377 0.192-0.684 0.499-0.876 0.876-0.192 0.378-0.259 0.806-0.192 1.224s0.265 0.805 0.565 1.103z" fill="#231f20" fill-opacity=".2"/>
 <path id="path_14" d="m36.78 27.98c0.597 0.601 1.369 0.997 2.205 1.131s1.694-1e-3 2.449-0.385c0.754-0.384 1.368-0.998 1.752-1.752 0.384-0.755 0.519-1.613 0.385-2.449s-0.53-1.608-1.131-2.205c-0.597-0.601-1.369-0.997-2.205-1.131s-1.694 1e-3 -2.449 0.385c-0.754 0.384-1.368 0.998-1.752 1.752-0.384 0.755-0.519 1.613-0.385 2.449s0.53 1.608 1.131 2.205z" fill="#4f5d73"/>
 <path id="path_15" d="m43.85 20.91c0.298 0.3 0.685 0.498 1.103 0.565s0.846 0 1.224-0.192c0.377-0.192 0.684-0.499 0.876-0.876 0.192-0.378 0.259-0.806 0.192-1.224s-0.265-0.805-0.565-1.103c-0.298-0.3-0.685-0.498-1.103-0.565s-0.846 0-1.224 0.192c-0.377 0.192-0.684 0.499-0.876 0.876-0.192 0.378-0.259 0.806-0.192 1.224s0.265 0.805 0.565 1.103z" fill="#4f5d73"/>
</svg>
