<?xml version="1.0" encoding="UTF-8"?>
<svg id="vector" viewBox="0 0 64 64" xmlns="http://www.w3.org/2000/svg">
 <path id="path" d="m32 32m-32 0c0-8.484 3.374-16.629 9.373-22.627 5.998-5.999 14.143-9.373 22.627-9.373s16.629 3.374 22.627 9.373c5.999 5.998 9.373 14.143 9.373 22.627s-3.374 16.629-9.373 22.627c-5.998 5.999-14.143 9.373-22.627 9.373s-16.629-3.374-22.627-9.373c-5.999-5.998-9.373-14.143-9.373-22.627" fill="#77b3d4"/>
 <path id="path_1" d="m32 12c-12.13 0-22 9.87-22 22s9.87 22 22 22c3.5 0 6.98-0.84 10.07-2.44 0.98-0.51 1.37-1.71 0.86-2.69s-1.71-1.37-2.69-0.86c-2.56 1.32-5.34 1.99-8.24 1.99-9.93 0-18-8.07-18-18s8.07-18 18-18 18 8.07 18 18c0 3.04-0.75 5.98-2.19 8.61-1.75-1.39-4.39-4.2-4.39-8.53v-8.79c0-1.1-0.9-2-2-2s-2 0.9-2 2v0.08c-1.99-1.72-4.58-2.76-7.42-2.76-6.29 0-11.38 5.1-11.38 11.38s5.09 11.39 11.38 11.39c3.73 0 7.04-1.81 9.11-4.58 2.3 4.24 6.16 6.28 6.4 6.4 0.89 0.46 1.98 0.18 2.55-0.64 2.58-3.69 3.94-8.04 3.94-12.56 0-12.13-9.87-22-22-22zm0 29.38c-4.07 0-7.38-3.31-7.38-7.38s3.31-7.38 7.38-7.38 7.38 3.31 7.38 7.38-3.31 7.38-7.38 7.38z" fill="#231f20" fill-opacity=".2"/>
 <path id="path_2" d="m32 54c-12.13 0-22-9.87-22-22s9.87-22 22-22 22 9.87 22 22c0 4.52-1.36 8.87-3.94 12.56-0.57 0.82-1.66 1.09-2.55 0.64-0.33-0.17-8.09-4.25-8.09-13.12v-8.79c0-1.1 0.89-2 2-2 1.1 0 2 0.9 2 2v8.79c0 4.33 2.64 7.14 4.39 8.53 1.44-2.63 2.19-5.57 2.19-8.61 0-9.93-8.07-18-18-18s-18 8.07-18 18 8.07 18 18 18c2.9 0 5.68-0.67 8.24-1.99 0.98-0.51 2.19-0.12 2.69 0.86 0.51 0.98 0.12 2.19-0.86 2.69-3.09 1.6-6.57 2.44-10.07 2.44z" fill="#fff"/>
 <path id="path_3" d="m32 24.62c4.07 0 7.38 3.31 7.38 7.38s-3.31 7.38-7.38 7.38-7.38-3.31-7.38-7.38 3.31-7.38 7.38-7.38m0-4c-6.29 0-11.38 5.1-11.38 11.38s5.09 11.38 11.38 11.38 11.38-5.09 11.38-11.38-5.09-11.38-11.38-11.38z" fill="#fff"/>
</svg>
