<?xml version="1.0" encoding="UTF-8"?><svg id="a" xmlns="http://www.w3.org/2000/svg" viewBox="0 0 40 46"><g id="b"><g opacity=".4"><path d="M0,17v25c0,2.21,1.79,4,4,4h32c2.21,0,4-1.79,4-4v-25H0Z" fill="#212121" stroke-width="0"/></g><path d="M0,15v25c0,2.21,1.79,4,4,4h32c2.21,0,4-1.79,4-4V15H0Z" fill="#fff" stroke-width="0"/><g opacity=".2"><path d="M36,6H4C1.79,6,0,7.79,0,10v7h40v-7c0-2.21-1.79-4-4-4Z" fill="#757575" stroke-width="0"/></g><path d="M36,4H4C1.79,4,0,5.79,0,8v7h40v-7c0-2.21-1.79-4-4-4Z" fill="#ef5350" stroke-width="0"/><path d="M20,40c-1.1,0-2-.9-2-2,0-5.51,1.76-9.46,3.49-12h-6.49c-1.1,0-2-.9-2-2s.9-2,2-2h11c.87,0,1.64.56,1.91,1.39s-.04,1.74-.75,2.24c-.2.15-5.16,3.86-5.16,12.37,0,1.1-.9,2-2,2Z" fill="#37474f" stroke-width="0"/><g opacity=".2"><path d="M8,13c-1.1,0-2-.9-2-2v-7c0-1.1.9-2,2-2s2,.9,2,2v7c0,1.1-.9,2-2,2Z" fill="#231f20" stroke-width="0"/></g><g opacity=".2"><path d="M33,13c-1.1,0-2-.9-2-2v-7c0-1.1.9-2,2-2s2,.9,2,2v7c0,1.1-.9,2-2,2Z" fill="#231f20" stroke-width="0"/></g><path d="M8,11c-1.1,0-2-.9-2-2V2c0-1.1.9-2,2-2s2,.9,2,2v7c0,1.1-.9,2-2,2Z" fill="#b0bec5" stroke-width="0"/><path d="M33,11c-1.1,0-2-.9-2-2V2c0-1.1.9-2,2-2s2,.9,2,2v7c0,1.1-.9,2-2,2Z" fill="#b0bec5" stroke-width="0"/></g></svg>