<?xml version="1.0" encoding="UTF-8"?>
<svg width="64px" height="64px" enable-background="new 0 0 64 64" version="1.1" viewBox="0 0 64 64" xml:space="preserve" xmlns="http://www.w3.org/2000/svg"><g id="Layer_1"><circle cx="32" cy="32" r="32" fill="#77B3D4"/><g opacity=".2"><path d="M12,25v25c0,2.209,1.791,4,4,4h32c2.209,0,4-1.791,4-4V25H12z" fill="#231F20"/></g><path d="M12,23v25c0,2.209,1.791,4,4,4h32c2.209,0,4-1.791,4-4V23H12z" fill="#fff"/><g opacity=".2"><path d="m48 14h-32c-2.209 0-4 1.791-4 4v7h40v-7c0-2.209-1.791-4-4-4z" fill="#231F20"/></g><path d="m48 12h-32c-2.209 0-4 1.791-4 4v7h40v-7c0-2.209-1.791-4-4-4z" fill="#C75C5C"/><path d="M32,48c-1.104,0-2-0.896-2-2c0-5.515,1.757-9.455,3.491-12H27c-1.104,0-2-0.896-2-2s0.896-2,2-2h11     c0.871,0,1.642,0.563,1.906,1.394s-0.039,1.735-0.75,2.238C38.957,33.778,34,37.493,34,46C34,47.104,33.104,48,32,48z" fill="#4F5D73"/><g opacity=".2"><path d="m20 21c-1.105 0-2-0.895-2-2v-7c0-1.105 0.895-2 2-2s2 0.895 2 2v7c0 1.105-0.895 2-2 2z" fill="#231F20"/></g><g opacity=".2"><path d="m45 21c-1.105 0-2-0.895-2-2v-7c0-1.105 0.895-2 2-2s2 0.895 2 2v7c0 1.105-0.895 2-2 2z" fill="#231F20"/></g><path d="m20 19c-1.105 0-2-0.895-2-2v-7c0-1.105 0.895-2 2-2s2 0.895 2 2v7c0 1.105-0.895 2-2 2z" fill="#E0E0D1"/><path d="m45 19c-1.105 0-2-0.895-2-2v-7c0-1.105 0.895-2 2-2s2 0.895 2 2v7c0 1.105-0.895 2-2 2z" fill="#E0E0D1"/></g></svg>
